<?xml version="1.0" encoding="UTF-8" standalone="no"?>
<svg
   width="141.74179"
   zoomAndPan="magnify"
   viewBox="0 0 106.30634 24.802164"
   height="33.069553"
   preserveAspectRatio="xMidYMid"
   version="1.0"
   id="svg70"
   sodipodi:docname="Cleveland Se.svg"
   inkscape:version="1.2.2 (b0a84865, 2022-12-01)"
   xmlns:inkscape="http://www.inkscape.org/namespaces/inkscape"
   xmlns:sodipodi="http://sodipodi.sourceforge.net/DTD/sodipodi-0.dtd"
   xmlns="http://www.w3.org/2000/svg"
   xmlns:svg="http://www.w3.org/2000/svg">
  <sodipodi:namedview
     id="namedview72"
     pagecolor="#ffffff"
     bordercolor="#000000"
     borderopacity="0.25"
     inkscape:showpageshadow="2"
     inkscape:pageopacity="0.0"
     inkscape:pagecheckerboard="0"
     inkscape:deskcolor="#d1d1d1"
     showgrid="false"
     inkscape:zoom="3.776"
     inkscape:cx="47.007415"
     inkscape:cy="46.477754"
     inkscape:window-width="1672"
     inkscape:window-height="857"
     inkscape:window-x="0"
     inkscape:window-y="25"
     inkscape:window-maximized="0"
     inkscape:current-layer="svg70" />
  <defs
     id="defs4">
    <g
       id="g2" />
  </defs>
  <g
     fill="#000000"
     fill-opacity="1"
     id="g12"
     transform="translate(-129.98486,-121.8564)">
    <g
       transform="translate(128.85257,146.84077)"
       id="g10">
      <g
         id="g8">
        <path
           d="M 16.4375,-7.390625 C 16.800781,-5.941406 16.6875,-4.644531 16.09375,-3.5 15.5,-2.351562 14.53125,-1.554688 13.1875,-1.109375 11.664062,-0.578125 9.84375,-0.269531 7.71875,-0.1875 6.757812,-0.144531 5.90625,-0.363281 5.15625,-0.84375 4.414062,-1.320312 3.820312,-1.804688 3.375,-2.296875 2.882812,-2.847656 2.582031,-3.441406 2.46875,-4.078125 2.351562,-4.710938 2.453125,-5.285156 2.765625,-5.796875 3.253906,-6.648438 4.0625,-7.078125 5.1875,-7.078125 c 0.300781,0 0.601562,0.03125 0.90625,0.09375 0.125,0.042969 0.257812,0.078125 0.40625,0.109375 0.144531,0.023438 0.273438,0.054688 0.390625,0.09375 0.550781,0.167969 1.113281,0.304688 1.6875,0.40625 0.570313,0.105469 1.175781,0.0625 1.8125,-0.125 L 11.40625,-6.8125 11.25,-7.140625 c -0.261719,-0.632813 -0.640625,-1.097656 -1.140625,-1.390625 -0.492187,-0.300781 -1,-0.535156 -1.53125,-0.703125 C 6.472656,-9.859375 4.570312,-11.03125 2.875,-12.75 1.632812,-14.019531 1.054688,-15.441406 1.140625,-17.015625 1.210938,-18.566406 1.914062,-19.882812 3.25,-20.96875 c 2.53125,-2.082031 5.398438,-2.75 8.609375,-2 1.4375,0.335938 2.5,1.0625 3.1875,2.1875 0.269531,0.46875 0.425781,0.980469 0.46875,1.53125 0,0.167969 -0.02344,0.355469 -0.0625,0.5625 -0.04297,0.199219 -0.136719,0.351562 -0.28125,0.453125 -0.242187,0.179687 -0.617187,0.167969 -1.125,-0.03125 -0.617187,-0.25 -1.367187,-0.476563 -2.25,-0.6875 -0.875,-0.21875 -1.804687,-0.21875 -2.78125,0 -0.46875,0.105469 -0.929687,0.261719 -1.375,0.46875 -0.4375,0.210937 -0.839844,0.421875 -1.203125,0.640625 -0.429688,0.25 -0.640625,0.570312 -0.640625,0.953125 0,0.386719 0.203125,0.714844 0.609375,0.984375 l 0.671875,0.390625 c 0.550781,0.335937 1.109375,0.65625 1.671875,0.96875 0.5625,0.3125 1.140625,0.59375 1.734375,0.84375 3.269531,1.3125 5.253906,3.417969 5.953125,6.3125 z m 0,0"
           id="path6" />
      </g>
    </g>
  </g>
  <g
     fill="#000000"
     fill-opacity="1"
     id="g20"
     transform="translate(-129.98486,-121.8564)">
    <g
       transform="translate(144.54173,146.84077)"
       id="g18">
      <g
         id="g16">
        <path
           d="m 15.046875,-5.1875 c 0.164063,0.699219 0.15625,1.296875 -0.03125,1.796875 -0.179687,0.5 -0.511719,0.855469 -1,1.0625 C 12.992188,-1.921875 12.09375,-2.367188 11.3125,-3.671875 11.289062,-3.691406 11.269531,-3.71875 11.25,-3.75 c -0.02344,-0.03125 -0.05469,-0.066406 -0.09375,-0.109375 -0.386719,0.261719 -0.761719,0.527344 -1.125,0.796875 -0.355469,0.261719 -0.714844,0.496094 -1.078125,0.703125 -0.917969,0.46875 -1.835937,0.683594 -2.75,0.640625 C 5.296875,-1.757812 4.476562,-2.035156 3.75,-2.546875 3.03125,-3.054688 2.460938,-3.78125 2.046875,-4.71875 1.359375,-6.375 1.054688,-8.023438 1.140625,-9.671875 c 0.09375,-1.644531 0.46875,-3.285156 1.125,-4.921875 0.144531,-0.34375 0.359375,-0.625 0.640625,-0.84375 0.289062,-0.226562 0.648438,-0.304688 1.078125,-0.234375 0.46875,0.08594 0.785156,0.289063 0.953125,0.609375 0.164062,0.3125 0.257812,0.683594 0.28125,1.109375 0.03125,0.59375 0.050781,1.199219 0.0625,1.8125 0.00781,0.617187 0.046875,1.230469 0.109375,1.84375 0.0625,0.46875 0.140625,0.945313 0.234375,1.421875 0.09375,0.480469 0.210938,0.953125 0.359375,1.421875 0.15625,0.53125 0.378906,0.824219 0.671875,0.875 0.300781,0.054687 0.617188,-0.144531 0.953125,-0.59375 C 7.867188,-7.535156 8.09375,-7.9375 8.28125,-8.375 c 0.195312,-0.445312 0.359375,-0.882812 0.484375,-1.3125 0.25,-0.832031 0.460937,-1.675781 0.640625,-2.53125 0.1875,-0.863281 0.382812,-1.71875 0.59375,-2.5625 0.15625,-0.570312 0.445312,-1.003906 0.875,-1.296875 0.4375,-0.300781 0.921875,-0.421875 1.453125,-0.359375 0.550781,0.08594 0.992187,0.324219 1.328125,0.71875 0.332031,0.386719 0.519531,0.875 0.5625,1.46875 0,0.09375 0,0.195312 0,0.296875 0,0.105469 -0.01172,0.210937 -0.03125,0.3125 -0.199219,1.449219 -0.1875,2.875 0.03125,4.28125 0.226562,1.398437 0.503906,2.789063 0.828125,4.171875 z m 0,0"
           id="path14" />
      </g>
    </g>
  </g>
  <g
     fill="#000000"
     fill-opacity="1"
     id="g28"
     transform="translate(-129.98486,-121.8564)">
    <g
       transform="translate(158.75994,146.84077)"
       id="g26">
      <g
         id="g24">
        <path
           d="m 14.125,-13.28125 c 0.988281,1.335938 1.585938,2.746094 1.796875,4.234375 0.21875,1.492187 0.203125,3.027344 -0.04687,4.609375 -0.09375,0.605469 -0.351562,1.085938 -0.765625,1.4375 -0.40625,0.34375 -0.867187,0.527344 -1.375,0.546875 C 13.203125,-2.429688 12.707031,-2.570312 12.25,-2.875 11.789062,-3.1875 11.488281,-3.648438 11.34375,-4.265625 11.15625,-4.972656 11.019531,-5.695312 10.9375,-6.4375 10.863281,-7.175781 10.773438,-7.910156 10.671875,-8.640625 10.628906,-8.910156 10.582031,-9.1875 10.53125,-9.46875 c -0.05469,-0.289062 -0.109375,-0.628906 -0.171875,-1.015625 -0.21875,0.1875 -0.414063,0.34375 -0.578125,0.46875 C 9.613281,-9.898438 9.476562,-9.769531 9.375,-9.625 c -0.667969,0.855469 -1.273438,1.75 -1.8125,2.6875 -0.542969,0.929688 -0.949219,1.933594 -1.21875,3.015625 -0.1875,0.773437 -0.542969,1.359375 -1.0625,1.765625 -0.523438,0.398438 -1.117188,0.5625 -1.78125,0.5 -0.679688,-0.082031 -1.246094,-0.375 -1.703125,-0.875 -0.460937,-0.5 -0.679687,-1.144531 -0.65625,-1.9375 0.039063,-1.414062 0.101563,-2.820312 0.1875,-4.21875 0.09375,-1.40625 0.203125,-2.8125 0.328125,-4.21875 0.039062,-0.507812 0.171875,-0.972656 0.390625,-1.390625 0.226563,-0.414063 0.660156,-0.632813 1.296875,-0.65625 0.570312,-0.01953 0.988281,0.152344 1.25,0.515625 0.269531,0.367188 0.476562,0.792969 0.625,1.28125 0.019531,0.08594 0.046875,0.167969 0.078125,0.25 0.039063,0.08594 0.082031,0.199219 0.125,0.34375 0.375,-0.3125 0.71875,-0.613281 1.03125,-0.90625 0.3125,-0.300781 0.632813,-0.5625 0.96875,-0.78125 1.164063,-0.84375 2.359375,-1.175781 3.578125,-1 1.226562,0.179688 2.269531,0.835938 3.125,1.96875 z m 0,0"
           id="path22" />
      </g>
    </g>
  </g>
  <g
     fill="#000000"
     fill-opacity="1"
     id="g36"
     transform="translate(-129.98486,-121.8564)">
    <g
       transform="translate(173.89749,146.84077)"
       id="g34">
      <g
         id="g32">
        <path
           d="m 15.453125,-5.25 c 0.425781,0.417969 0.679687,0.890625 0.765625,1.421875 0.08203,0.53125 -0.02344,1.011719 -0.3125,1.4375 C 15.644531,-1.960938 15.238281,-1.664062 14.6875,-1.5 14.132812,-1.332031 13.582031,-1.375 13.03125,-1.625 12.71875,-1.769531 12.414062,-1.941406 12.125,-2.140625 11.84375,-2.347656 11.570312,-2.566406 11.3125,-2.796875 10.65625,-3.378906 10,-3.988281 9.34375,-4.625 8.695312,-5.257812 7.992188,-5.9375 7.234375,-6.65625 7.066406,-6.226562 6.894531,-5.820312 6.71875,-5.4375 c -0.167969,0.375 -0.3125,0.757812 -0.4375,1.140625 -0.242188,0.78125 -0.59375,1.371094 -1.0625,1.765625 -0.460938,0.398438 -1,0.574219 -1.625,0.53125 C 2.957031,-2.050781 2.425781,-2.304688 2,-2.765625 1.582031,-3.234375 1.320312,-3.863281 1.21875,-4.65625 1.125,-5.582031 1.117188,-6.492188 1.203125,-7.390625 1.378906,-9.679688 1.566406,-11.96875 1.765625,-14.25 c 0.207031,-2.289062 0.414063,-4.582031 0.625,-6.875 0,-0.125 0.00391,-0.25 0.015625,-0.375 0.00781,-0.132812 0.046875,-0.242188 0.109375,-0.328125 0.1875,-0.207031 0.375,-0.441406 0.5625,-0.703125 0.195313,-0.269531 0.394531,-0.40625 0.59375,-0.40625 0.226563,-0.01953 0.488281,0.0625 0.78125,0.25 0.300781,0.1875 0.523437,0.390625 0.671875,0.609375 0.175781,0.3125 0.304688,0.652344 0.390625,1.015625 0.082031,0.367188 0.132813,0.726562 0.15625,1.078125 0.101563,1.125 0.191406,2.246094 0.265625,3.359375 0.070312,1.117188 0.132812,2.21875 0.1875,3.3125 0.019531,0.3125 0.039062,0.636719 0.0625,0.96875 0.019531,0.324219 0.050781,0.6875 0.09375,1.09375 0.425781,-0.320312 0.820312,-0.625 1.1875,-0.90625 0.375,-0.289062 0.742188,-0.5625 1.109375,-0.8125 0.4375,-0.28125 0.875,-0.554688 1.3125,-0.828125 0.4375,-0.28125 0.890625,-0.546875 1.359375,-0.796875 0.550781,-0.28125 1.054688,-0.378906 1.515625,-0.296875 0.457031,0.07422 0.800781,0.289063 1.03125,0.640625 0.488281,0.773438 0.253906,1.570312 -0.703125,2.390625 -0.429688,0.386719 -0.871094,0.761719 -1.328125,1.125 -0.449219,0.355469 -0.898437,0.703125 -1.34375,1.046875 -0.125,0.125 -0.257813,0.25 -0.390625,0.375 -0.125,0.117188 -0.273438,0.257812 -0.4375,0.421875 0.695312,0.40625 1.375,0.796875 2.03125,1.171875 0.664062,0.367188 1.316406,0.742188 1.953125,1.125 0.332031,0.210938 0.65625,0.421875 0.96875,0.640625 0.3125,0.210937 0.613281,0.445313 0.90625,0.703125 z m 0,0"
           id="path30" />
      </g>
    </g>
  </g>
  <g
     fill="#000000"
     fill-opacity="1"
     id="g44"
     transform="translate(-129.98486,-121.8564)">
    <g
       transform="translate(189.21891,146.84077)"
       id="g42">
      <g
         id="g40">
        <path
           d="m 14.34375,-7.90625 c 0.144531,0.730469 0.09375,1.429688 -0.15625,2.09375 -0.242188,0.667969 -0.59375,1.296875 -1.0625,1.890625 -0.429688,0.53125 -0.929688,0.761719 -1.5,0.6875 -0.574219,-0.070313 -0.984375,-0.4375 -1.234375,-1.09375 C 10.253906,-4.691406 10.148438,-5.082031 10.078125,-5.5 10.003906,-5.914062 9.9375,-6.332031 9.875,-6.75 9.789062,-7.300781 9.722656,-7.851562 9.671875,-8.40625 9.617188,-8.957031 9.550781,-9.507812 9.46875,-10.0625 c -0.042969,-0.238281 -0.121094,-0.476562 -0.234375,-0.71875 -0.105469,-0.25 -0.21875,-0.539062 -0.34375,-0.875 -0.699219,0.617188 -1.242187,1.25 -1.625,1.90625 -0.386719,0.65625 -0.632813,1.390625 -0.734375,2.203125 -0.085938,0.617187 -0.1875,1.21875 -0.3125,1.8125 -0.117188,0.59375 -0.265625,1.179687 -0.453125,1.75 -0.167969,0.53125 -0.445313,0.949219 -0.828125,1.25 -0.386719,0.292969 -0.867188,0.4375 -1.4375,0.4375 -0.554688,-0.019531 -1.027344,-0.175781 -1.421875,-0.46875 -0.386719,-0.300781 -0.636719,-0.695313 -0.75,-1.1875 -0.210937,-0.800781 -0.39843698,-1.597656 -0.56249998,-2.390625 -0.167969,-0.800781 -0.289063,-1.609375 -0.359375,-2.421875 -0.167969,-1.976563 -0.308594,-3.96875 -0.421875,-5.96875 -0.117187,-2.007813 -0.230469,-4.003906 -0.34375,-5.984375 -0.023437,-0.394531 -0.007813,-0.78125 0.046875,-1.15625 0.0625,-0.375 0.125,-0.753906 0.1875,-1.140625 0.124999998000009,-0.613281 0.363281,-1.09375 0.71875,-1.4375 0.363281,-0.351563 0.78124998,-0.53125 1.24999998,-0.53125 0.46875,0 0.882812,0.15625 1.25,0.46875 0.375,0.304687 0.628906,0.75 0.765625,1.34375 0.269531,1.148437 0.507813,2.292969 0.71875,3.4375 0.21875,1.136719 0.453125,2.277344 0.703125,3.421875 0.039062,0.273438 0.085938,0.546875 0.140625,0.828125 0.0625,0.273437 0.132813,0.546875 0.21875,0.828125 0.226563,-0.03906 0.34375,-0.0625 0.34375,-0.0625 1.59375,-0.875 2.992187,-1.125 4.203125,-0.75 1.21875,0.375 2.195312,1.390625 2.9375,3.046875 0.300781,0.71875 0.550781,1.464844 0.75,2.234375 0.195312,0.761719 0.351562,1.523438 0.46875,2.28125 z m 0,0"
           id="path38" />
      </g>
    </g>
  </g>
  <g
     fill="#000000"
     fill-opacity="1"
     id="g52"
     transform="translate(-129.98486,-121.8564)">
    <g
       transform="translate(204.20324,146.84077)"
       id="g50">
      <g
         id="g48">
        <path
           d="m 14.25,-6.125 c 0.207031,0.917969 0.21875,1.6875 0.03125,2.3125 -0.179688,0.625 -0.5625,1.058594 -1.15625,1.296875 -0.636719,0.273437 -1.261719,0.273437 -1.875,0 -0.617188,-0.28125 -1.1875,-0.8125 -1.71875,-1.59375 C 9.488281,-4.171875 9.4375,-4.238281 9.375,-4.3125 9.320312,-4.382812 9.265625,-4.46875 9.203125,-4.5625 9.035156,-4.46875 8.882812,-4.363281 8.75,-4.25 8.625,-4.132812 8.476562,-4.035156 8.3125,-3.953125 7.882812,-3.742188 7.453125,-3.519531 7.015625,-3.28125 6.585938,-3.050781 6.140625,-2.890625 5.671875,-2.796875 4.523438,-2.503906 3.476562,-2.550781 2.53125,-2.9375 1.582031,-3.332031 0.84375002,-3.96875 0.31250002,-4.84375 c -0.53125,-0.875 -0.746094,-1.90625 -0.640625,-3.09375 0.050781,-0.957031 0.296875,-1.894531 0.734375,-2.8125 0.445312,-0.925781 1.00781198,-1.78125 1.68749998,-2.5625 0.6875,-0.789062 1.457031,-1.453125 2.3125,-1.984375 0.863281,-0.53125 1.742188,-0.867187 2.640625,-1.015625 1.019531,-0.175781 1.941406,-0.06641 2.765625,0.328125 0.832031,0.398437 1.628906,0.882813 2.390625,1.453125 0.25,0.1875 0.425781,0.476562 0.53125,0.859375 0.113281,0.386719 0.203125,0.757813 0.265625,1.109375 0.25,1.0625 0.460938,2.136719 0.640625,3.21875 0.1875,1.085938 0.390625,2.15625 0.609375,3.21875 z M 5.390625,-7.234375 c 0.945313,-0.363281 1.664063,-1.046875 2.15625,-2.046875 0.488281,-1.007812 0.628906,-2.09375 0.421875,-3.25 -1.023438,0.40625 -1.824219,0.984375 -2.40625,1.734375 -0.585938,0.742187 -1.046875,1.589844 -1.390625,2.546875 -0.042969,0.148438 -0.0625,0.34375 -0.0625,0.59375 0,0.242188 0.039063,0.382812 0.125,0.421875 0.164063,0.085937 0.351563,0.125 0.5625,0.125 0.21875,0 0.414063,-0.039063 0.59375,-0.125 z m 0,0"
           id="path46" />
      </g>
    </g>
  </g>
  <g
     fill="#000000"
     fill-opacity="1"
     id="g60"
     transform="translate(-129.98486,-121.8564)">
    <g
       transform="translate(219.18757,146.84077)"
       id="g58">
      <g
         id="g56">
        <path
           d="m 12.265625,-12.171875 c 0.08203,0.292969 0.09766,0.625 0.04687,1 -0.05469,0.375 -0.171875,0.667969 -0.359375,0.875 -0.15625,0.199219 -0.417969,0.335937 -0.78125,0.40625 C 10.816406,-9.816406 10.488281,-9.789062 10.1875,-9.8125 9.875,-9.832031 9.5625,-9.914062 9.25,-10.0625 8.945312,-10.21875 8.65625,-10.367188 8.375,-10.515625 7.96875,-10.722656 7.609375,-10.78125 7.296875,-10.6875 6.992188,-10.59375 6.78125,-10.351562 6.65625,-9.96875 6.144531,-8.550781 5.722656,-7.097656 5.390625,-5.609375 5.316406,-5.285156 5.300781,-4.941406 5.34375,-4.578125 5.394531,-4.222656 5.398438,-3.875 5.359375,-3.53125 c -0.054687,0.761719 -0.335937,1.382812 -0.84375,1.859375 -0.5,0.480469 -1.09375,0.742187 -1.78125,0.78125 -0.71875,0.042969 -1.34375,-0.144531 -1.87499998,-0.5625 -0.53125,-0.414063 -0.890625,-0.992187 -1.078125,-1.734375 -0.042969,-0.1875 -0.078125,-0.367188 -0.109375,-0.546875 -0.023437,-0.1875 -0.03125,-0.382813 -0.03125,-0.59375 0.019531,-1.8125 0.035156,-3.628906 0.046875,-5.453125 0.007812,-1.832031 0.019531,-3.660156 0.03125,-5.484375 0,-0.1875 0.007812,-0.382813 0.03125,-0.59375 0.019531,-0.21875 0.09375,-0.390625 0.21875,-0.515625 0.207031,-0.238281 0.4375,-0.492188 0.6875,-0.765625 0.257812,-0.28125 0.51953098,-0.429687 0.78124998,-0.453125 0.269531,-0.01953 0.5625,0.07031 0.875,0.265625 0.320312,0.1875 0.59375,0.40625 0.8125,0.65625 0.1875,0.199219 0.328125,0.460937 0.421875,0.78125 0.09375,0.3125 0.195313,0.636719 0.3125,0.96875 1.96875,-1.070313 3.910156,-1.113281 5.828125,-0.125 0.632812,0.304687 1.175781,0.6875 1.625,1.15625 0.445312,0.46875 0.765625,1.042969 0.953125,1.71875 z m 0,0"
           id="path54" />
      </g>
    </g>
  </g>
  <g
     fill="#000000"
     fill-opacity="1"
     id="g68"
     transform="translate(-129.98486,-121.8564)">
    <g
       transform="translate(232.08807,146.84077)"
       id="g66">
      <g
         id="g64">
        <path
           d="m 4.203125,-13.09375 c 0,0.355469 0,0.867188 0,1.53125 0,0.65625 -0.00781,1.367188 -0.015625,2.125 -0.011719,0.75 -0.023438,1.433594 -0.03125,2.046875 C 4.144531,-6.773438 4.140625,-6.34375 4.140625,-6.09375 4.117188,-5.789062 4.09375,-5.484375 4.0625,-5.171875 4.03125,-4.867188 3.984375,-4.566406 3.921875,-4.265625 3.785156,-3.441406 3.5,-2.8125 3.0625,-2.375 2.632812,-1.9375 2.144531,-1.738281 1.59375,-1.78125 1.039062,-1.820312 0.56250002,-2.078125 0.15625002,-2.546875 c -0.40625,-0.46875 -0.570312,-1.097656 -0.484375,-1.890625 0.113281,-1.519531 0.289063,-3.03125 0.53125,-4.53125 0.25,-1.5 0.507813,-3.003906 0.78125,-4.515625 0.082031,-0.414063 0.28124998,-0.742187 0.59374998,-0.984375 0.320313,-0.25 0.71875,-0.34375 1.1875,-0.28125 0.46875,0.04297 0.816406,0.226562 1.046875,0.546875 0.238281,0.3125 0.367188,0.683594 0.390625,1.109375 z M 1.90625,-17.375 C 1.414062,-17.394531 1,-17.59375 0.65625002,-17.96875 c -0.335938,-0.382812 -0.5,-0.84375 -0.5,-1.375 0,-0.53125 0.179688,-0.984375 0.546875,-1.359375 C 1.078125,-21.085938 1.53125,-21.28125 2.0625,-21.28125 c 0.507812,0 0.941406,0.183594 1.296875,0.546875 0.351563,0.355469 0.519531,0.796875 0.5,1.328125 0,0.554688 -0.199219,1.039062 -0.59375,1.453125 -0.398437,0.40625 -0.851563,0.601563 -1.359375,0.578125 z m 0,0"
           id="path62" />
      </g>
    </g>
  </g>
</svg>
